<?xml version="1.0" encoding="UTF-8" standalone="no"?>
<!-- Created with Inkscape (http://www.inkscape.org/) -->

<svg
   xmlns:dc="http://purl.org/dc/elements/1.1/"
   xmlns:cc="http://creativecommons.org/ns#"
   xmlns:rdf="http://www.w3.org/1999/02/22-rdf-syntax-ns#"
   xmlns:svg="http://www.w3.org/2000/svg"
   xmlns="http://www.w3.org/2000/svg"
   xmlns:xlink="http://www.w3.org/1999/xlink"
   xmlns:sodipodi="http://sodipodi.sourceforge.net/DTD/sodipodi-0.dtd"
   xmlns:inkscape="http://www.inkscape.org/namespaces/inkscape"
   width="57mm"
   height="57mm"
   viewBox="0 0 201.96851 201.96851"
   id="svg4184"
   version="1.1"
   inkscape:version="0.91 r13725"
   sodipodi:docname="repronim-logo3.svg"
   inkscape:export-filename="/home/yoh/proj/repronim/artwork/logo/repronim-logo3.2_nobg_256x256.png"
   inkscape:export-xdpi="114.08"
   inkscape:export-ydpi="114.08">
  <defs
     id="defs4186">
    <inkscape:path-effect
       effect="spiro"
       id="path-effect4957"
       is_visible="true" />
    <inkscape:path-effect
       is_visible="true"
       id="path-effect4955"
       effect="spiro" />
    <inkscape:path-effect
       effect="spiro"
       id="path-effect4953"
       is_visible="true" />
    <filter
       inkscape:menu-tooltip="In and out glow with a possible offset and colorizable flood"
       inkscape:menu="Shadows and Glows"
       inkscape:label="Cutout Glow"
       style="color-interpolation-filters:sRGB;"
       id="filter4828">
      <feOffset
         dy="3"
         dx="3"
         id="feOffset4830" />
      <feGaussianBlur
         stdDeviation="3"
         result="blur"
         id="feGaussianBlur4832" />
      <feFlood
         flood-color="rgb(0,0,0)"
         flood-opacity="1"
         result="flood"
         id="feFlood4834" />
      <feComposite
         in="flood"
         in2="SourceGraphic"
         operator="in"
         result="composite"
         id="feComposite4836" />
      <feBlend
         in="blur"
         in2="composite"
         mode="normal"
         id="feBlend4838" />
    </filter>
    <filter
       style="color-interpolation-filters:sRGB;"
       inkscape:label="Drop Shadow"
       id="filter4902">
      <feFlood
         flood-opacity="0.498039"
         flood-color="rgb(0,0,0)"
         result="flood"
         id="feFlood4904" />
      <feComposite
         in="flood"
         in2="SourceGraphic"
         operator="in"
         result="composite1"
         id="feComposite4906" />
      <feGaussianBlur
         in="composite1"
         stdDeviation="0.5"
         result="blur"
         id="feGaussianBlur4908" />
      <feOffset
         dx="0.5"
         dy="0.5"
         result="offset"
         id="feOffset4910" />
      <feComposite
         in="SourceGraphic"
         in2="offset"
         operator="over"
         result="composite2"
         id="feComposite4912" />
    </filter>
    <filter
       style="color-interpolation-filters:sRGB;"
       inkscape:label="Drop Shadow"
       id="filter5012">
      <feFlood
         flood-opacity="0.498039"
         flood-color="rgb(0,0,0)"
         result="flood"
         id="feFlood5014" />
      <feComposite
         in="flood"
         in2="SourceGraphic"
         operator="in"
         result="composite1"
         id="feComposite5016" />
      <feGaussianBlur
         in="composite1"
         stdDeviation="0.5"
         result="blur"
         id="feGaussianBlur5018" />
      <feOffset
         dx="0.5"
         dy="0.5"
         result="offset"
         id="feOffset5020" />
      <feComposite
         in="SourceGraphic"
         in2="offset"
         operator="over"
         result="composite2"
         id="feComposite5022" />
    </filter>
    <filter
       style="color-interpolation-filters:sRGB;"
       inkscape:label="Drop Shadow"
       id="filter4183">
      <feFlood
         flood-opacity="0.498039"
         flood-color="rgb(0,0,0)"
         result="flood"
         id="feFlood4185" />
      <feComposite
         in="flood"
         in2="SourceGraphic"
         operator="in"
         result="composite1"
         id="feComposite4187" />
      <feGaussianBlur
         in="composite1"
         stdDeviation="1"
         result="blur"
         id="feGaussianBlur4189" />
      <feOffset
         dx="1"
         dy="1"
         result="offset"
         id="feOffset4191" />
      <feComposite
         in="SourceGraphic"
         in2="offset"
         operator="over"
         result="composite2"
         id="feComposite4193" />
    </filter>
  </defs>
  <sodipodi:namedview
     id="base"
     pagecolor="#ffffff"
     bordercolor="#666666"
     borderopacity="1.0"
     inkscape:pageopacity="0.0"
     inkscape:pageshadow="2"
     inkscape:zoom="2"
     inkscape:cx="-96.562477"
     inkscape:cy="14.707601"
     inkscape:document-units="px"
     inkscape:current-layer="layer1"
     showgrid="false"
     showguides="false"
     inkscape:guide-bbox="true"
     fit-margin-top="0"
     fit-margin-left="0"
     fit-margin-right="0"
     fit-margin-bottom="0">
    <sodipodi:guide
       position="96.423946,246.5996"
       orientation="1,0"
       id="guide4738" />
  </sodipodi:namedview>
  <metadata
     id="metadata4189">
    <rdf:RDF>
      <cc:Work
         rdf:about="">
        <dc:format>image/svg+xml</dc:format>
        <dc:type
           rdf:resource="http://purl.org/dc/dcmitype/StillImage" />
        <dc:title></dc:title>
      </cc:Work>
    </rdf:RDF>
  </metadata>
  <g
     inkscape:groupmode="layer"
     id="layer2"
     inkscape:label="white_bg"
     style="display:none">
    <rect
       style="color:#000000;display:inline;overflow:visible;visibility:visible;opacity:1;fill:#ffffff;fill-opacity:1;fill-rule:nonzero;stroke:none;stroke-width:5;stroke-linecap:round;stroke-linejoin:miter;stroke-miterlimit:4;stroke-dasharray:none;stroke-dashoffset:0;stroke-opacity:0.52941165;marker:none;enable-background:accumulate"
       id="rect4826"
       width="212"
       height="213"
       x="-5"
       y="-2.0314934" />
  </g>
  <g
     inkscape:label="Layer 1"
     inkscape:groupmode="layer"
     id="layer1"
     transform="translate(-240.71447,-186.02509)">
    <g
       id="g4997"
       style="filter:url(#filter4183)">
      <use
         height="100%"
         width="100%"
         transform="matrix(0.00262015,0,0,0.00262015,340.80342,242.28569)"
         id="use4995"
         xlink:href="#g4982"
         y="0"
         x="0"
         style="" />
      <g
         id="g4982"
         style="">
        <use
           x="0"
           y="0"
           xlink:href="#g4969"
           id="use4980"
           transform="matrix(0.05074053,0,0,0.05074053,324.36075,230.60576)"
           width="100%"
           height="100%"
           style="" />
        <g
           id="g4969"
           style="">
          <use
             height="100%"
             width="100%"
             transform="matrix(0.22617055,0,0,0.22617055,264.41653,188.00196)"
             id="use4967"
             xlink:href="#g4813"
             y="0"
             x="0"
             style="" />
          <g
             transform="translate(4.555817,35.928788)"
             id="g4813"
             style="">
            <g
               id="g4959"
               style="">
              <use
                 x="0"
                 y="0"
                 xlink:href="#g4944"
                 id="use4949"
                 transform="matrix(0.47306489,0,0,0.47306489,177.65241,109.09604)"
                 width="100%"
                 height="100%"
                 style="" />
              <g
                 id="g4944"
                 style="">
                <path
                   sodipodi:nodetypes="cccccscsccccc"
                   inkscape:connector-curvature="0"
                   id="path4918"
                   d="m 402.16288,302.75809 c 2.13312,1.22776 3.7638,3.41293 3.97934,5.88628 0.26899,2.99683 -3.12638,4.5056 -2.3416,7.99322 -2.97575,1.60791 -1.4813,4.4574 -2.85538,6.39217 -1.34467,1.99503 -1.7929,4.5526 -4.08606,5.95743 -1.3472,1.50845 -4.26546,0.99727 -4.47703,3.65199 -0.20685,2.59542 -3.87058,4.1603 -6.31834,5.20539 -3.65476,-0.87388 -4.12207,2.5223 -6.3917,3.51025 -2.58848,1.12675 -5.3307,2.14213 -8.10313,1.52433 -1.72869,-0.92211 -3.49561,2.51645 -5.86701,1.31917 -2.39065,-1.31878 -5.19846,-2.89133 -7.5358,-0.58836 -1.7819,2.51759 -4.99653,2.97447 -7.82553,3.4188 -2.47694,0.56139 -4.17147,2.74331 -6.97346,1.63218"
                   style="display:inline;opacity:1;fill:none;fill-opacity:1;stroke:#87aade;stroke-width:2;stroke-miterlimit:4;stroke-dasharray:none;stroke-opacity:1;enable-background:new;" />
                <path
                   sodipodi:nodetypes="cccccccccccccccccscccccccsccccsccccscccccccccccccccsccccccccccccccccccccscccsccccccccccccccccccccccccccccsscccscccscsscccccscccccccccccccccsscccccccccccccccccccccccccccccccccccssccccccccccccccsscccccsscscccscccssccccccccccccccccccscccccccccsccccccccccccccccccccccccccccccccccccccccsccccsccccccccccccsccccccccccccccccc"
                   inkscape:connector-curvature="0"
                   id="path4193"
                   d="m 337.31013,270.51439 c 1.02059,28.98244 -0.83324,91.30491 7.42349,77.29061 l 0.92361,-2.71435 c 2.10332,-10.21935 2.10332,-10.21935 2.10332,-10.21935 0.61573,-2.20569 2.51469,-9.89667 3.1132,-11.73403 0.59927,-1.83822 2.37751,-6.44571 2.37751,-6.44571 l 3.33479,-7.53006 c 0,0 2.90461,-6.16781 3.23299,-7.26166 0.32753,-1.09377 -8.5e-4,-2.25888 -0.35962,-2.90442 -0.35868,-0.64536 -2.46369,-3.38903 -3.18124,-4.2496 -0.71754,-0.86049 -2.10357,-4.4638 -2.51384,-5.86227 -0.41031,-1.39838 -0.4626,-5.1101 -0.35961,-6.45427 0.10265,-1.34511 1.6419,-5.43287 2.66807,-6.99226 1.02625,-1.56023 2.9252,-3.92607 3.79706,-4.46473 0.87202,-0.53848 1.18014,0.0534 1.07715,0.69898 -0.10307,0.64546 -0.56483,1.23645 -0.9236,1.98972 -0.35885,0.75301 -1.89811,3.54986 -3.12958,6.34671 -1.23113,2.79694 -1.33412,6.23924 -1.33412,7.47671 0,1.23755 0.82096,3.54995 1.18057,4.67985 0.35962,1.12999 2.82289,3.17382 3.64342,3.76507 0.82104,0.59125 3.33538,0.21462 4.00228,-0.10773 0.66748,-0.32175 1.13025,-0.64579 1.7963,-0.91385 0.66773,-0.26899 0.5639,0.37664 0.46176,0.80671 -0.10215,0.43042 -0.20598,0.48386 -0.46176,0.91394 -0.25579,0.43024 -0.76988,1.1288 -0.6154,1.88291 0.15347,0.75387 1.53841,2.4209 2.51367,3.38903 0.97535,0.96823 4.87506,3.28054 6.77317,4.3028 1.89802,1.02183 6.10543,0.97009 6.82381,0.86066 0.7183,-0.1085 1.3337,-1.34401 1.43669,-2.09813 0.10299,-0.75377 -0.0506,-1.82939 -0.30728,-2.52837 -0.25667,-0.69872 -0.30727,-1.77451 -0.30727,-2.3666 0,-0.59464 0.71897,-0.16457 1.02625,0.0509 0.30728,0.21512 0.25668,0.69863 0.30728,1.34417 0.0507,0.64554 0.15448,1.99057 0.41026,2.9045 0.25688,0.91486 1.53934,1.93585 2.16402,2.31757 0.62401,0.38122 3.94234,1.4475 5.37903,1.4475 1.43668,0 5.90105,-1.61359 5.90105,-1.61359 0,0 3.95087,-1.93644 4.56627,-2.36652 0.61582,-0.43041 1.5384,-1.55938 1.69289,-2.15148 0.15347,-0.59125 -0.35886,-1.72175 -0.92361,-2.41988 -0.56474,-0.69889 -1.69289,-1.50662 -2.25763,-1.77467 -0.56483,-0.26848 -2.00203,-0.70026 -2.66807,-0.86058 -0.66673,-0.16117 -1.89811,-0.53781 -1.89811,-0.53781 0,0 2.30955,-0.37409 3.07859,-0.69813 0.76946,-0.32404 1.53933,-0.59209 1.53933,-0.59209 0,0 -0.35877,1.45089 -0.25578,1.98954 0.10257,0.53874 1.18065,1.34545 1.74456,1.6678 0.56407,0.32192 2.51468,0.75284 3.38654,0.91401 0.87278,0.16177 3.43828,-0.64562 4.66975,-1.0757 1.23139,-0.43033 4.10527,-2.68937 4.9258,-3.28062 0.82103,-0.59125 2.51401,-3.87263 2.92427,-5.00169 0.41027,-1.12905 -0.0506,-3.22709 -0.41026,-4.14111 -0.35962,-0.91393 -1.69365,-2.79659 -2.41204,-3.49557 -0.7183,-0.69983 -1.95019,-1.02218 -2.77072,-1.18335 -0.82095,-0.15864 -2.30896,-0.15864 -3.12949,-0.0509 -0.82062,0.10603 -1.28237,0.26805 -1.28237,0.26805 0,0 0.92385,-1.23755 1.18048,-1.8288 0.25747,-0.59116 0.10299,-1.61359 0.10299,-1.61359 0,0 0.61624,1.12982 1.28228,1.8288 0.66664,0.69881 1.59024,1.12889 2.30863,1.29091 0.71923,0.16117 4.10501,-0.21631 4.87489,-0.37664 0.77013,-0.161 2.92453,-1.39838 3.69441,-2.04392 0.77013,-0.64537 2.56542,-3.28037 3.07867,-3.9259 0.51308,-0.64546 2.20673,-3.87399 2.5655,-4.67986 0.35878,-0.80637 0.76988,-2.47382 1.07716,-3.28053 0.30863,-0.80637 1.18074,-2.7966 1.591,-3.54987 0.41035,-0.7531 1.28322,-3.4423 1.42841,-4.58094 0.1452,-1.13847 0.72604,-5.15396 0.67534,-6.55242 -0.0509,-1.39839 -1.17888,-4.30289 -1.89811,-5.37867 -0.71915,-1.0757 -3.182,-2.20603 -4.05386,-2.52837 -0.87193,-0.32319 -4.31014,-0.64554 -4.31014,-0.64554 l -7.08086,-1.39762 c 0,0 -8.41583,-1.39762 -10.00599,-1.93627 -1.59024,-0.53866 -2.36045,-0.26975 -2.92436,0.26805 -0.56398,0.53696 -1.1798,1.93636 -1.74455,2.85021 -0.56483,0.91402 -2.30845,2.90416 -2.82255,3.71087 -0.5141,0.80713 -0.76988,2.09872 -0.76988,2.79685 0,0.69974 1.4875,2.68938 1.4875,2.68938 0,0 -1.23096,-1.23772 -1.8472,-1.6678 -0.61565,-0.43093 -0.97451,-0.48352 -1.74439,-0.69898 -0.77004,-0.21547 -1.7963,0.16117 -1.7963,0.16117 l 1.18057,-1.23764 c 0,0 1.59125,-1.34443 2.20665,-1.7745 0.61573,-0.43025 2.41364,-1.93653 3.07547,-2.72543 0.66326,-0.78915 0.77384,-2.97592 0.87599,-3.8907 0.1013,-0.91478 -0.41027,-4.35624 -0.56475,-5.48623 -0.15372,-1.1299 -0.56399,-3.92683 -0.9236,-5.11009 -0.35953,-1.18326 -1.64191,-2.68929 -1.64191,-2.68929 0,0 0.76912,0.53823 1.28238,0.86057 0.51308,0.3232 2.61657,0.58614 3.38645,0.64554 0.76988,0.0542 0.97502,0.59235 0.76988,0.96814 -0.2053,0.37578 -0.51308,0.64469 -1.23147,1.12905 -0.71847,0.48454 -1.33386,1.18335 -1.43685,2.04392 -0.10257,0.86058 0.4615,2.95862 1.43685,4.46465 0.97527,1.50654 2.87338,2.31325 2.87338,2.31325 0,0 7.74834,1.66754 8.8255,1.883 1.07707,0.21504 6.15726,1.18292 7.18343,1.39838 1.02625,0.21546 6.20909,0.80756 6.92748,0.5921 0.7183,-0.21529 1.7448,-1.02268 2.3602,-1.45276 0.61582,-0.43033 0.92478,-1.77518 1.18057,-2.47416 0.25657,-0.69881 0.1012,-4.03525 0.0506,-5.00169 -0.0498,-0.96729 -0.51241,-4.67892 -0.66605,-5.86218 -0.15355,-1.18335 -1.07749,-3.81936 -1.48776,-5.05598 -0.41043,-1.23662 -1.6928,-4.89413 -2.77072,-6.93796 -1.078,-2.04392 -2.05242,-3.71138 -3.02777,-4.51809 -0.97526,-0.80688 -2.4637,-1.45242 -3.64342,-1.61359 -1.17972,-0.16117 -3.07859,0.43008 -3.79697,0.64554 -0.71839,0.21546 -1.54002,0.64469 -2.05242,0.48352 -0.51157,-0.16169 -0.46176,-0.91512 -0.25579,-1.23747 0.2053,-0.32234 0.82112,-0.32234 1.591,-0.43008 0.77013,-0.10688 2.92681,0.21547 3.64351,0.21547 0.71762,0 2.46167,-1.12906 2.92427,-1.72115 0.46185,-0.5921 0.8729,-2.52829 0.9236,-3.8192 0.0509,-1.2909 -1.18031,-3.71086 -1.8472,-4.73321 -0.66748,-1.02251 -2.10577,-1.50602 -3.02777,-1.50602 -0.92276,0 -2.46209,-0.0543 -3.33471,-0.32235 -0.87228,-0.26856 -0.97526,-1.6141 -0.97526,-2.41996 0,-0.80637 0.66604,-2.6892 0.66604,-3.33474 0,-0.64546 -0.87295,-2.41996 -1.64198,-3.76507 -0.76921,-1.34512 -3.38654,-3.60416 -4.82315,-4.89498 -1.43677,-1.29082 -2.7708,-1.87696 -3.79705,-1.93636 -1.02617,-0.0542 -2.61776,0.75301 -3.28381,1.39855 -0.66664,0.64537 -2.15431,2.79685 -2.71906,4.08767 -0.56475,1.29091 -0.82053,3.71163 -0.82053,4.73321 0,1.02141 0.4626,2.68921 0.71839,3.28046 0.25578,0.59133 0.66604,1.55947 0.66604,1.55947 0,0 -1.48708,-0.86126 -2.10332,-0.96814 -0.61582,-0.1018 -1.18057,-0.0509 -1.18057,-0.0509 0,0 1.18032,-1.29074 1.48759,-1.98972 0.30902,-0.69966 0.30902,-2.63593 0.35962,-3.54986 0.0518,-0.91402 0.87244,-3.92599 1.3342,-4.78648 0.46134,-0.86066 1.5905,-3.17391 1.84712,-4.03449 0.25747,-0.86057 0.10299,-2.79685 -0.30727,-3.9259 -0.41052,-1.12914 -2.56644,-3.22718 -3.84881,-4.1412 -1.28237,-0.91393 -4.72066,-3.65734 -5.95205,-4.518 -1.23147,-0.86058 -1.95027,-2.31155 -2.7708,-3.28054 -0.82087,-0.96881 -2.77072,-1.56006 -3.79689,-1.66779 -1.02625,-0.10765 -2.61649,0.75284 -3.18124,1.39838 -0.56492,0.64537 -1.48751,2.58088 -1.64199,3.49566 -0.15537,0.91495 -0.20597,3.87263 -0.20597,4.89497 0,1.02243 -0.20514,3.22727 -0.20514,4.24961 0,1.02243 -0.10299,1.883 -0.61624,2.36652 -0.51249,0.48377 -1.02574,0 -1.28237,-0.43007 -0.25747,-0.43034 -0.25747,-2.52855 -0.10299,-3.49566 0.1544,-0.96738 0.87186,-3.28063 1.23147,-4.35633 0.35957,-1.07569 0.46087,-3.65827 0.41027,-4.89506 -0.0513,-1.23661 -0.30796,-2.90441 -0.87186,-3.98011 -0.56399,-1.07569 -2.30896,-2.90432 -3.12949,-3.54986 -0.82104,-0.64545 -3.79706,-1.88317 -5.02853,-2.31325 -1.23147,-0.43041 -5.74683,-1.72149 -7.33783,-2.09812 -1.591,-0.37689 -6.46513,-1.61232 -7.38873,-1.93636 -0.9236,-0.32354 -3.38654,-1.29227 -4.41271,-1.45259 -1.02633,-0.161 -2.97686,0.59193 -3.84872,1.23746 -0.87185,0.64554 -2.46243,2.04393 -3.07867,3.01215 -0.61574,0.96813 -1.6425,3.01189 -1.94977,4.08767 -0.30829,1.0757 -0.8207,3.98019 -1.12882,5.2711 -0.30897,1.29082 -0.0515,5.7005 -0.15448,7.15309 -0.1013,1.45267 -0.1528,6.23923 -0.25579,7.31493 -0.32586,1.65623 -1.28117,1.55981 -1.28117,1.55981 0,0 -0.91066,0.1419 -1.28109,-1.55896 -0.10299,-1.0757 -0.15448,-5.86227 -0.25578,-7.31494 -0.10214,-1.45259 0.15448,-5.86226 -0.15448,-7.15317 -0.30812,-1.29082 -0.82053,-4.19532 -1.12882,-5.27102 -0.30728,-1.07578 -1.33412,-3.11953 -1.94986,-4.08767 -0.61539,-0.96822 -2.20665,-2.36669 -3.07859,-3.01214 -0.87193,-0.64554 -2.82238,-1.39847 -3.84863,-1.23747 -1.02625,0.16033 -3.48911,1.12906 -4.41271,1.45259 -0.9236,0.32319 -5.79782,1.55947 -7.38882,1.93636 -1.591,0.37664 -6.10636,1.66771 -7.33774,2.09813 -1.23164,0.43007 -4.20766,1.66779 -5.02861,2.31324 -0.82053,0.64554 -2.56551,2.47417 -3.12958,3.54987 -0.5639,1.0757 -0.82053,2.74349 -0.87185,3.98011 -0.0507,1.23679 0.0506,3.81928 0.41026,4.89506 0.35962,1.0757 1.07716,3.38895 1.23147,4.35632 0.15448,0.96712 0.15448,3.06524 -0.10299,3.49566 -0.25662,0.43008 -0.76988,0.91385 -1.28246,0.43008 -0.5124,-0.48352 -0.61624,-1.3441 -0.61624,-2.36652 0,-1.02235 -0.20513,-3.22719 -0.20513,-4.24961 0,-1.02234 -0.0507,-3.98011 -0.20513,-4.89498 -0.15448,-0.91478 -1.07716,-2.85029 -1.64199,-3.49566 -0.56475,-0.64553 -2.15507,-1.50603 -3.18124,-1.39838 -1.02625,0.10773 -2.97602,0.69898 -3.79697,1.6678 -0.82053,0.96898 -1.53942,2.41987 -2.77081,3.28045 -1.23147,0.86066 -4.66967,3.60415 -5.95196,4.51808 -1.28246,0.91402 -3.43829,3.01206 -3.8488,4.1412 -0.41027,1.12906 -0.56475,3.06533 -0.30728,3.92591 0.25663,0.86057 1.38587,3.17382 1.8472,4.03448 0.46176,0.86049 1.28229,3.87247 1.33412,4.78648 0.0507,0.91393 0.0507,2.85021 0.35962,3.54987 0.30812,0.69898 1.48767,1.98971 1.48767,1.98971 0,0 -0.56475,-0.0509 -1.18065,0.0509 -0.6154,0.10689 -2.10417,0.96916 -2.10417,0.96916 0,0 0.41027,-0.96822 0.66605,-1.55947 0.25578,-0.59125 0.71838,-2.25905 0.71838,-3.28062 0,-1.02141 -0.25578,-3.44231 -0.82052,-4.73313 -0.56475,-1.2909 -2.05243,-3.4423 -2.71906,-4.08767 -0.66605,-0.64554 -2.25764,-1.45276 -3.28389,-1.39847 -1.02617,0.0594 -2.36021,0.64554 -3.79698,1.93619 -1.43677,1.29091 -4.05394,3.54995 -4.82322,4.89498 -0.76904,1.34519 -1.64199,3.11962 -1.64199,3.76515 0,0.64554 0.66605,2.52838 0.66605,3.33475 0,0.80586 -0.10299,2.15139 -0.97519,2.41996 -0.87269,0.26805 -2.41211,0.32234 -3.33487,0.32234 -0.92284,0 -2.36021,0.48352 -3.02769,1.50595 -0.66689,1.02242 -1.89811,3.4423 -1.8472,4.73329 0.0507,1.29082 0.46176,3.2271 0.9236,3.81919 0.4626,0.5921 2.20673,1.72115 2.92427,1.72115 0.71755,0 2.87338,-0.32234 3.64351,-0.21546 0.76988,0.10773 1.3857,0.10773 1.591,0.43008 0.20513,0.32234 0.25578,1.07578 -0.25578,1.23755 -0.51241,0.16117 -1.33404,-0.26806 -2.05242,-0.48352 -0.71839,-0.21546 -2.61726,-0.80671 -3.79698,-0.64554 -1.17972,0.16117 -2.66815,0.80671 -3.64342,1.61359 -0.97526,0.80586 -1.94977,2.47408 -3.02777,4.518 -1.07791,2.04392 -2.36037,5.70135 -2.7708,6.93805 -0.41027,1.23662 -1.33404,3.87264 -1.48759,5.0559 -0.15364,1.18334 -0.61624,4.89497 -0.66605,5.86226 -0.0506,0.96814 -0.20513,4.30296 0.0507,5.00169 0.25578,0.69813 0.56475,2.04299 1.18057,2.47332 0.61624,0.43007 1.64198,1.23746 2.36029,1.45275 0.71838,0.21547 5.9013,-0.37663 6.92739,-0.59209 1.02625,-0.21547 6.10644,-1.18326 7.18351,-1.3983 1.07707,-0.21546 8.82542,-1.883 8.82542,-1.883 0,0 1.89811,-0.80671 2.87337,-2.31325 0.97535,-1.50603 1.53942,-3.60407 1.43677,-4.46465 -0.10298,-0.86057 -0.71838,-1.55938 -1.43677,-2.04392 -0.71838,-0.48436 -1.02617,-0.75327 -1.23138,-1.12905 -0.20513,-0.37579 0,-0.91394 0.76988,-0.96814 0.76988,-0.0594 2.87337,-0.32234 3.38645,-0.64554 0.51326,-0.32234 1.28238,-0.86057 1.28238,-0.86057 0,0 -1.28238,1.50603 -1.64199,2.68929 -0.35962,1.18326 -0.76988,3.98019 -0.9236,5.11009 -0.15364,1.12999 -0.66605,4.57145 -0.56475,5.48623 0.10214,0.91478 0.21357,3.10155 0.87599,3.89061 0.66267,0.7889 2.4588,2.29527 3.07454,2.72551 0.61624,0.43008 2.20682,1.77451 2.20682,1.77451 l 1.18056,1.23764 c 0,0 -1.02617,-0.37664 -1.79638,-0.16118 -0.76988,0.21547 -1.12882,0.26891 -1.74447,0.69898 -0.6154,0.43008 -1.84721,1.66771 -1.84721,1.66771 0,0 1.48759,-1.98963 1.48759,-2.68929 0,-0.69897 -0.25578,-1.98963 -0.76988,-2.79685 -0.51409,-0.80671 -2.25755,-2.79693 -2.82246,-3.71086 -0.56475,-0.91385 -1.18049,-2.31325 -1.74456,-2.85021 -0.5639,-0.53611 -1.33403,-0.80671 -2.92436,-0.26805 -1.59015,0.53865 -10.0059,1.93619 -10.0059,1.93619 l -7.08002,1.39685 c 0,0 -3.43828,0.32235 -4.31014,0.64554 -0.87194,0.32234 -3.33471,1.45267 -4.05394,2.52837 -0.71923,1.07578 -1.8472,3.98028 -1.8981,5.37866 -0.0507,1.39847 0.53013,5.41395 0.67533,6.55242 0.14604,1.13864 1.01815,3.82785 1.4285,4.58095 0.41026,0.75327 1.28229,2.74179 1.59032,3.54893 0.30728,0.80671 0.71839,2.47425 1.07707,3.28062 0.35877,0.80671 2.05242,4.03431 2.56551,4.67977 0.51325,0.64554 2.30862,3.28062 3.07858,3.92599 0.76988,0.64554 2.92428,1.883 3.69441,2.04383 0.76988,0.16118 4.15566,0.53781 4.87498,0.37664 0.71923,-0.16033 1.6419,-0.5921 2.30862,-1.29099 0.66605,-0.69898 1.28305,-1.82863 1.28305,-1.82863 0,0 -0.15448,1.02234 0.10299,1.6135 0.25662,0.59125 1.18048,1.8288 1.18048,1.8288 0,0 -0.46176,-0.16117 -1.28229,-0.26805 -0.82053,-0.10773 -2.30845,-0.10773 -3.12941,0.0509 -0.82053,0.16033 -2.05242,0.48352 -2.7708,1.18326 -0.71839,0.69898 -2.05234,2.58173 -2.41204,3.49566 -0.35961,0.91402 -0.82053,3.01198 -0.41026,4.14112 0.41026,1.12905 2.10332,4.41044 2.92427,5.00177 0.82053,0.59125 3.69441,2.85021 4.9258,3.28045 1.23138,0.43008 3.79697,1.23747 4.66967,1.07578 0.8727,-0.16117 2.82255,-0.59209 3.38654,-0.91393 0.5639,-0.32234 1.64199,-1.12905 1.74464,-1.66788 0.10299,-0.53865 -0.25578,-1.98963 -0.25578,-1.98963 0,0 0.76987,0.26806 1.53933,0.5921 0.76904,0.32319 3.07859,0.69813 3.07859,0.69813 0,0 -1.23147,0.37663 -1.89811,0.53781 -0.66604,0.16032 -2.10332,0.59209 -2.66815,0.86057 -0.56475,0.26806 -1.69281,1.07579 -2.25764,1.77459 -0.56475,0.69814 -1.07707,1.82863 -0.92352,2.41988 0.15364,0.5921 1.07707,1.72115 1.69281,2.15157 0.6154,0.43007 4.56626,2.36652 4.56626,2.36652 0,0 4.46437,1.61359 5.90106,1.61359 1.43677,0 4.7551,-1.06628 5.37911,-1.4475 0.62468,-0.38172 1.90705,-1.40271 2.16402,-2.31749 0.25663,-0.91402 0.35961,-2.25904 0.41026,-2.90458 0.0507,-0.64554 0,-1.12906 0.30728,-1.34418 0.30728,-0.21546 1.02617,-0.64554 1.02617,-0.0509 0,0.59209 -0.0507,1.66787 -0.30728,2.3666 -0.25662,0.69813 -0.41026,1.77459 -0.30727,2.52837 0.10298,0.75412 0.71838,1.98963 1.43677,2.09804 0.71838,0.10943 4.9257,0.16202 6.82381,-0.86057 1.89802,-1.02226 5.79773,-3.33466 6.77308,-4.30288 0.97535,-0.96814 2.36029,-2.63509 2.51376,-3.38887 0.15364,-0.75411 -0.35961,-1.45275 -0.61624,-1.883 -0.25578,-0.43007 -0.35962,-0.48352 -0.46176,-0.91393 -0.10214,-0.43008 -0.20513,-1.07578 0.46176,-0.80671 0.66605,0.26805 1.12882,0.5921 1.7963,0.91385 0.66689,0.32234 3.18124,0.69898 4.00219,0.10773 0.82053,-0.59125 3.28397,-2.63517 3.64342,-3.76499 0.35962,-1.12999 1.18057,-3.44239 1.18057,-4.67994 0,-1.23746 -0.10299,-4.67976 -1.33404,-7.47678 -1.23155,-2.79677 -2.7708,-5.5937 -3.12958,-6.34672 -0.35877,-0.75327 -0.82052,-1.34418 -0.9236,-1.98963 -0.10299,-0.64554 0.20514,-1.23746 1.07716,-0.69898 0.87185,0.53866 2.7708,2.90458 3.79697,4.46473 1.02626,1.55947 2.56551,5.64714 2.66816,6.99225 0.10299,1.34427 0.0507,5.0559 -0.35962,6.45436 -0.41026,1.39847 -1.7963,5.00178 -2.51384,5.86227 -0.71754,0.86066 -2.82247,3.60415 -3.18124,4.24952 -0.35877,0.64554 -0.68799,1.81073 -0.35961,2.9045 0.32922,1.09385 3.23298,7.26158 3.23298,7.26158 l 3.3348,7.53014 c 0,0 1.77899,4.60758 2.37751,6.44562 0.59851,1.83737 2.49746,9.52843 3.1132,11.73412 0.61539,2.20569 0,0 2.10332,10.21935 l 0.9236,2.71427 c 9.09665,14.15558 7.77959,-48.09945 7.74893,-77.20889"
                   style="display:inline;opacity:1;fill:none;fill-opacity:1;stroke:#87aade;stroke-width:3;stroke-miterlimit:4;stroke-dasharray:none;stroke-opacity:1;enable-background:new;" />
                <use
                   height="100%"
                   width="100%"
                   transform="matrix(-1,0,0,1,674.67524,0)"
                   id="use4942"
                   xlink:href="#path4918"
                   y="0"
                   x="0"
                   style="" />
                <path
                   style="fill:#87aade;fill-opacity:1;fill-rule:evenodd;stroke:#87aade;stroke-width:0.88088942px;stroke-linecap:butt;stroke-linejoin:miter;stroke-opacity:1;"
                   d="m 337.34615,273.50231 0,-4.89829"
                   id="path4951"
                   inkscape:path-effect="#path-effect4957"
                   inkscape:original-d="m 337.34615,273.50231 0,-4.89829"
                   inkscape:connector-curvature="0" />
              </g>
            </g>
          </g>
        </g>
      </g>
    </g>
  </g>
</svg>
